<?xml version="1.0" encoding="UTF-8"?>
<svg version="1.1" xmlns="http://www.w3.org/2000/svg" width="1369" height="489">
<path d="M0 0 C451.77 0 903.54 0 1369 0 C1369 161.37 1369 322.74 1369 489 C917.23 489 465.46 489 0 489 C0 327.63 0 166.26 0 0 Z " fill="#880015" transform="translate(0,0)"/>
<path d="M0 0 C451.77 0 903.54 0 1369 0 C1369 161.37 1369 322.74 1369 489 C917.23 489 465.46 489 0 489 C0 327.63 0 166.26 0 0 Z M438 2 C438 160.73 438 319.46 438 483 C743.58 483 1049.16 483 1364 483 C1364 324.27 1364 165.54 1364 2 C1058.42 2 752.84 2 438 2 Z " fill="#000000" transform="translate(0,0)"/>
<path d="M0 0 C69.96 0 139.92 0 212 0 C212 2.64 212 5.28 212 8 C144.68 8 77.36 8 8 8 C8 53.54 8 99.08 8 146 C22.03015625 145.97679687 36.0603125 145.95359375 50.515625 145.9296875 C59.38411531 145.91947298 68.25260139 145.90976278 77.12109375 145.90234375 C91.2091619 145.8904638 105.29720617 145.87647722 119.38525391 145.84912109 C129.6442427 145.82920969 139.90321218 145.81628891 150.16221976 145.81182301 C155.5961291 145.80921182 161.02998316 145.80305913 166.46387482 145.78853989 C171.57569979 145.77499152 176.68744658 145.7707718 181.7992878 145.77378464 C183.67785377 145.77323324 185.55642229 145.7692395 187.43497276 145.76158905 C189.99542127 145.75167077 192.55557276 145.7540197 195.11602783 145.75949097 C195.86311138 145.75366528 196.61019494 145.7478396 197.37991738 145.74183738 C201.08098408 145.76328302 203.8565081 145.94577148 207 148 C207.02332631 171.71258011 207.04097785 195.42515851 207.05181217 219.13774776 C207.0569757 230.1470929 207.06401948 241.15643092 207.07543945 252.16577148 C207.08538456 261.75781892 207.09185301 271.34986121 207.09408849 280.94191366 C207.0953959 286.02415292 207.09848361 291.10637744 207.10573006 296.18861198 C207.11248754 300.96635671 207.11461752 305.74408055 207.11310768 310.52182961 C207.11338413 312.28071074 207.11539086 314.03959253 207.11920547 315.79846954 C207.12413848 318.1891131 207.12299976 320.57967646 207.12025452 322.97032166 C207.12462378 324.02818128 207.12462378 324.02818128 207.12908131 325.1074118 C207.11412121 329.88587879 207.11412121 329.88587879 206 331 C204.20681108 331.09746445 202.40973385 331.12371419 200.61389828 331.12304783 C198.85005524 331.1260344 198.85005524 331.1260344 197.05057901 331.12908131 C195.08807391 331.12471205 195.08807391 331.12471205 193.08592224 331.12025452 C191.69500126 331.1206901 190.30408036 331.12156476 188.91315991 331.12284368 C185.0730785 331.12509125 181.23302472 331.1210638 177.39294684 331.11606562 C173.25863812 331.11176504 169.12433108 331.11320726 164.99002075 331.1139679 C157.82109136 331.11449338 150.65217105 331.11134402 143.48324394 331.10573006 C133.11805613 331.09761837 122.75287273 331.09500018 112.38768209 331.09374207 C95.57266122 331.09155102 78.75764519 331.08488953 61.94262695 331.07543945 C45.60408553 331.06626668 29.26554543 331.05918519 12.92700195 331.05493164 C11.92064717 331.05466892 10.91429238 331.05440619 9.87744199 331.05413551 C4.82908062 331.05283051 -0.21928075 331.0515668 -5.26764214 331.05032361 C-47.17843146 331.03994937 -89.08921545 331.02232964 -131 331 C-131 328.36 -131 325.72 -131 323 C-22.1 323 86.8 323 199 323 C199 267.23 199 211.46 199 154 C184.80226563 154.02320313 170.60453125 154.04640625 155.9765625 154.0703125 C147.00781178 154.08052574 138.03906525 154.09023579 129.0703125 154.09765625 C114.81964688 154.10954119 100.56900485 154.12354161 86.31835938 154.15087891 C75.94146246 154.17077567 65.56458461 154.18370759 55.18766916 154.18817699 C49.69010775 154.19079068 44.19260089 154.19695906 38.69505692 154.21146011 C33.5257841 154.22498543 28.35658856 154.22923293 23.18729973 154.22621536 C21.28531793 154.2267678 19.38333367 154.23077519 17.48136711 154.23841095 C14.89394522 154.24829329 12.30681894 154.24599365 9.71939087 154.24050903 C8.95869974 154.24633472 8.19800861 154.2521604 7.41426623 154.25816262 C2.22824242 154.22824242 2.22824242 154.22824242 0 152 C-0.24609566 149.38006401 -0.24609566 149.38006401 -0.24050903 145.98898315 C-0.24464152 144.07044179 -0.24464152 144.07044179 -0.2488575 142.11314201 C-0.24176338 140.6820352 -0.23448759 139.25092929 -0.22705078 137.81982422 C-0.22643839 136.29770989 -0.22670461 134.77559499 -0.2277813 133.25348091 C-0.22823384 129.16782535 -0.21662064 125.08228633 -0.20256042 120.99665833 C-0.19119218 117.16646954 -0.19063537 113.33630948 -0.18920898 109.50610352 C-0.1787036 98.29572017 -0.15078143 87.08535862 -0.125 75.875 C-0.08375 50.83625 -0.0425 25.7975 0 0 Z " fill="#880015" transform="translate(187,64)"/>
<path d="M0 0 C2.64 0 5.28 0 8 0 C8 85.47 8 170.94 8 259 C101.39 259 194.78 259 291 259 C291 261.64 291 264.28 291 267 C254.07273717 267.02286506 217.14547541 267.04049756 180.21820695 267.05106533 C175.8633261 267.05231611 171.50844527 267.05361042 167.15356445 267.05493164 C165.85304049 267.05532511 165.85304049 267.05532511 164.52624332 267.05572652 C150.46868821 267.06008349 136.41113717 267.06797118 122.35358448 267.0771528 C107.94027174 267.08648859 93.52696113 267.09205545 79.11364549 267.09408849 C70.21250486 267.09546388 61.31137572 267.09981529 52.41023862 267.10791647 C46.31491176 267.11318301 40.21959089 267.11480451 34.12426192 267.11350138 C30.6021917 267.11285785 27.08014163 267.11387712 23.55807495 267.11920547 C19.74863435 267.12492684 15.93922045 267.12300106 12.129776 267.12025452 C11.00431384 267.12316736 9.87885167 267.1260802 8.71928459 267.12908131 C7.70710883 267.12709026 6.69493306 267.12509921 5.6520853 267.12304783 C4.33122814 267.12361741 4.33122814 267.12361741 2.98368698 267.1241985 C1 267 1 267 0 266 C-0.09659172 264.57692835 -0.12371842 263.14907742 -0.12304783 261.72273159 C-0.12503888 260.79415732 -0.12702993 259.86558305 -0.12908131 258.90887016 C-0.12616847 257.87679076 -0.12325563 256.84471135 -0.12025452 255.78135681 C-0.12110894 254.69427746 -0.12196337 253.60719811 -0.12284368 252.48717695 C-0.12450169 248.81427026 -0.11897188 245.1414084 -0.11352539 241.46850586 C-0.11324356 238.84770204 -0.11340117 236.22689814 -0.1139679 233.60609436 C-0.11449332 227.9481096 -0.11134462 222.29013633 -0.10573006 216.63215446 C-0.09761751 208.45157189 -0.09500009 200.27099491 -0.09374207 192.09040875 C-0.09155116 178.81930255 -0.08489003 165.54820248 -0.07543945 152.27709961 C-0.06626633 139.38224315 -0.05918501 126.48738836 -0.05493164 113.5925293 C-0.05466892 112.7982512 -0.05440619 112.0039731 -0.05413551 111.18562596 C-0.05283051 107.20113365 -0.05156679 103.21664133 -0.05032361 99.232149 C-0.03994979 66.15476154 -0.02233043 33.07738159 0 0 Z " fill="#880015" transform="translate(57,66)"/>
<path d="M0 0 C2.64 0 5.28 0 8 0 C8 66.66 8 133.32 8 202 C82.91 202 157.82 202 235 202 C235 204.64 235 207.28 235 210 C205.20680687 210.02279003 175.41361404 210.040498 145.62041408 210.05106533 C142.10672461 210.05231611 138.59303515 210.05361042 135.0793457 210.05493164 C134.03003338 210.05532511 134.03003338 210.05532511 132.95952284 210.05572652 C121.61790832 210.06008328 110.27629884 210.06797086 98.93468732 210.0771528 C87.30572509 210.08648916 75.67676581 210.09198067 64.0478 210.09408849 C57.51238696 210.09539604 50.97698538 210.09848468 44.441576 210.10573006 C38.29806153 210.11248618 32.1545633 210.1146178 26.01104546 210.11310768 C23.7490467 210.11338419 21.48704744 210.11539172 19.22505188 210.11920547 C16.15128068 210.12413636 13.0775719 210.12300053 10.00379944 210.12025452 C8.64244585 210.12462378 8.64244585 210.12462378 7.25359017 210.12908131 C1.11412121 210.11412121 1.11412121 210.11412121 0 209 C-0.09784411 206.30669231 -0.12993795 203.63903832 -0.12025452 200.94529724 C-0.12110894 200.09098037 -0.12196337 199.2366635 -0.12284368 198.35645825 C-0.12450111 195.4712606 -0.11897284 192.58612009 -0.11352539 189.70092773 C-0.11324355 187.64169313 -0.11340119 185.58245842 -0.1139679 183.52322388 C-0.11425599 177.91394913 -0.10835735 172.30469556 -0.10139394 166.69542575 C-0.09516237 160.8404137 -0.09455676 154.98540121 -0.09336853 149.13038635 C-0.09025463 138.03459239 -0.08204045 126.93880823 -0.07201904 115.84301859 C-0.06085972 103.21445826 -0.05534791 90.58589747 -0.05032361 77.95733345 C-0.03985789 51.97155019 -0.02225731 25.98577564 0 0 Z " fill="#880015" transform="translate(109,67)"/>
<path d="M0 0 C2.47067185 1.07359365 3.93896286 2.21748139 6 4 C6.33 3.01 6.66 2.02 7 1 C11.62 1 16.24 1 21 1 C21.07447293 7.11976497 21.12875469 13.23926278 21.16479492 19.359375 C21.17982843 21.43884887 21.20026074 23.51829131 21.22631836 25.59765625 C21.26294136 28.59643334 21.27978111 31.59478911 21.29296875 34.59375 C21.30845261 35.51490601 21.32393646 36.43606201 21.33988953 37.38513184 C21.34199757 45.57484201 19.51231333 52.37226169 13.76171875 58.45703125 C5.75816805 65.46679295 -3.97894656 64.59871132 -14 64 C-16.0058517 63.70390868 -18.00941205 63.38557845 -20 63 C-20 59.37 -20 55.74 -20 52 C-18.68 52.33 -17.36 52.66 -16 53 C-9.97430412 54.32641104 -3.5203271 55.37353323 2 52 C5.1835207 48.10903025 6.52431821 44.99465883 7 40 C6.113125 40.825 5.22625 41.65 4.3125 42.5 C-0.17827695 45.67640321 -4.44396234 45.83258614 -9.83203125 45.609375 C-15.01668698 44.61207994 -17.88382022 42.16289658 -21 38 C-25.56759387 31.02432093 -24.89641344 21.4751527 -23.6015625 13.56640625 C-21.87969546 7.83057642 -17.71541252 4.45396458 -13 1 C-9.0625182 -0.9687409 -4.29106498 -0.46471449 0 0 Z " fill="#FAF4F5" transform="translate(893,214)"/>
<path d="M0 0 C1.84653277 1.23102185 3.54528702 2.56872452 5.1171875 4.140625 C5.4471875 2.820625 5.7771875 1.500625 6.1171875 0.140625 C10.4071875 0.140625 14.6971875 0.140625 19.1171875 0.140625 C19.24124095 6.68759328 19.33174264 13.23387002 19.3918457 19.78173828 C19.41691357 22.00679449 19.45097694 24.23176898 19.49438477 26.45654297 C19.55537559 29.66394265 19.58347534 32.87024907 19.60546875 36.078125 C19.63127518 37.06490234 19.6570816 38.05167969 19.68367004 39.06835938 C19.68732789 48.1764992 15.987715 53.42910151 9.9375 59.9140625 C4.22452428 63.76357833 -2.51795793 63.44865004 -9.1328125 63.390625 C-10.03 63.39835937 -10.9271875 63.40609375 -11.8515625 63.4140625 C-13.14320313 63.41019531 -13.14320313 63.41019531 -14.4609375 63.40625 C-15.23856445 63.40399414 -16.01619141 63.40173828 -16.81738281 63.39941406 C-18.8828125 63.140625 -18.8828125 63.140625 -21.8828125 61.140625 C-22.17578125 58.5390625 -22.17578125 58.5390625 -22.0703125 55.515625 C-22.04324219 54.51273437 -22.01617188 53.50984375 -21.98828125 52.4765625 C-21.95347656 51.70570313 -21.91867187 50.93484375 -21.8828125 50.140625 C-20.8928125 50.62015625 -20.8928125 50.62015625 -19.8828125 51.109375 C-16.19474404 52.37714853 -12.74021285 52.5836892 -8.8828125 52.640625 C-8.18414063 52.681875 -7.48546875 52.723125 -6.765625 52.765625 C-3.92718748 52.80846934 -1.60888443 52.70460609 0.68432617 50.92333984 C3.12967489 48.13459045 4.74022351 45.4009806 5.4296875 41.765625 C5.6565625 40.569375 5.8834375 39.373125 6.1171875 38.140625 C5.4571875 38.140625 4.7971875 38.140625 4.1171875 38.140625 C3.7871875 39.130625 3.4571875 40.120625 3.1171875 41.140625 C2.4571875 41.140625 1.7971875 41.140625 1.1171875 41.140625 C1.1171875 41.800625 1.1171875 42.460625 1.1171875 43.140625 C-4.64533464 44.7870599 -10.50926925 44.94673403 -16.1953125 43.015625 C-21.02298449 39.64748175 -24.03586654 35.69795346 -25.8828125 30.140625 C-26.74442509 21.77791455 -26.2035885 12.013294 -20.8828125 5.140625 C-20.2228125 5.140625 -19.5628125 5.140625 -18.8828125 5.140625 C-18.8828125 4.480625 -18.8828125 3.820625 -18.8828125 3.140625 C-14.01423448 -1.20631966 -6.09444609 -2.78169739 0 0 Z " fill="#FAF6F7" transform="translate(590.8828125,214.859375)"/>
<path d="M0 0 C0 3.96 0 7.92 0 12 C-0.83015625 11.83886719 -1.6603125 11.67773438 -2.515625 11.51171875 C-6.30004585 10.95593497 -9.92583369 10.8313941 -13.75 10.8125 C-15.72226563 10.79123047 -15.72226563 10.79123047 -17.734375 10.76953125 C-21.08442008 10.6473716 -21.08442008 10.6473716 -23 13 C-23.58402133 15.41417872 -23.58402133 15.41417872 -23 18 C-19.03055599 22.36638841 -13.41810216 24.0221297 -8 26 C-8 26.66 -8 27.32 -8 28 C-6.9171875 28.309375 -6.9171875 28.309375 -5.8125 28.625 C-2.01544 30.48134044 -0.5018692 32.59467803 2 36 C3.59228648 40.77685943 3.99433654 45.45842229 2.12890625 50.2265625 C-1.01803304 55.73628572 -4.80769099 58.74392635 -10.9597168 60.5871582 C-14.55424044 61.31449331 -18.15723263 61.18453065 -21.8125 61.1875 C-22.59431641 61.19974609 -23.37613281 61.21199219 -24.18164062 61.22460938 C-29.17567822 61.23712576 -33.26554074 60.59922322 -38 59 C-38 54.38 -38 49.76 -38 45 C-36.80375 45.66 -35.6075 46.32 -34.375 47 C-28.17869483 49.78685496 -21.67819762 49.7627158 -15 49 C-12.65026182 47.10244856 -12.65026182 47.10244856 -12.875 43.875 C-12.91625 42.92625 -12.9575 41.9775 -13 41 C-14.16917969 40.40832031 -15.33835937 39.81664062 -16.54296875 39.20703125 C-18.09140293 38.40935304 -19.63956579 37.61114799 -21.1875 36.8125 C-21.95642578 36.42513672 -22.72535156 36.03777344 -23.51757812 35.63867188 C-28.94661687 32.81929982 -33.96473547 30.10579358 -36 24 C-36.66 24 -37.32 24 -38 24 C-39.59874221 19.00393058 -39.40924278 14.4579274 -38 9.4375 C-34.80877126 3.9525756 -30.2597984 0.40446485 -24.125 -1.375 C-15.83523661 -2.96171252 -8.14289998 -1.86123428 0 0 Z " fill="#F9F3F4" transform="translate(1057,198)"/>
<path d="M0 0 C4.38191117 2.79696458 7.25860949 5.83832847 8.9375 10.875 C9.0220387 13.3160776 9.05355786 15.72759213 9.03515625 18.16796875 C9.0337413 18.87399734 9.03232635 19.58002594 9.03086853 20.30744934 C9.02527764 22.55917626 9.01272688 24.81080321 9 27.0625 C8.99498382 28.59049335 8.99042112 30.11848827 8.98632812 31.64648438 C8.9753112 35.38936135 8.95805287 39.13216373 8.9375 42.875 C4.6475 42.875 0.3575 42.875 -4.0625 42.875 C-4.3925 41.555 -4.7225 40.235 -5.0625 38.875 C-6.238125 39.8340625 -6.238125 39.8340625 -7.4375 40.8125 C-11.7942967 44.23569741 -14.9119002 44.26289581 -20.359375 44.234375 C-23.0625 43.875 -23.0625 43.875 -26.125 41.5 C-26.764375 40.63375 -27.40375 39.7675 -28.0625 38.875 C-28.7225 38.215 -29.3825 37.555 -30.0625 36.875 C-30.79866329 31.69860972 -31.35964922 25.71831531 -28.125 21.3125 C-21.00890062 15.6486658 -12.89759407 15.30853253 -4.0625 14.875 C-5.15034968 11.62516865 -5.15034968 11.62516865 -7.0625 8.875 C-14.03365037 8.15575433 -19.5820982 9.36645737 -26.0625 11.875 C-26.0625 8.575 -26.0625 5.275 -26.0625 1.875 C-18.19544337 -1.90118718 -8.36343596 -3.08126588 0 0 Z " fill="#FAF5F6" transform="translate(952.0625,215.125)"/>
<path d="M0 0 C3.35376109 2.33079921 4.44776787 4.90406827 5.29833984 8.86914062 C6.04454555 14.87894081 5.8252404 20.95521427 5.75 27 C5.73995069 28.40884781 5.73082829 29.81770255 5.72265625 31.2265625 C5.69919969 34.6512205 5.66637384 38.07551939 5.625 41.5 C1.665 41.5 -2.295 41.5 -6.375 41.5 C-6.375 39.85 -6.375 38.2 -6.375 36.5 C-7.035 36.5 -7.695 36.5 -8.375 36.5 C-8.705 37.49 -9.035 38.48 -9.375 39.5 C-14.34789932 42.94277645 -19.51304553 43.52774526 -25.375 42.5 C-29.28554711 40.48061911 -31.70132553 37.53607339 -33.375 33.5 C-34.08516255 30.02486032 -34.16315755 26.96682813 -33.375 23.5 C-29.88568518 18.77560592 -25.1401508 15.60868285 -19.375 14.5 C-15.37945317 14.0686042 -11.38597793 13.74662971 -7.375 13.5 C-7.375 11.85 -7.375 10.2 -7.375 8.5 C-14.1286933 6.2487689 -20.69521515 7.55678986 -27.375 9.5 C-27.375 10.16 -27.375 10.82 -27.375 11.5 C-28.035 11.5 -28.695 11.5 -29.375 11.5 C-29.375 7.87 -29.375 4.24 -29.375 0.5 C-20.77016672 -3.80241664 -8.53877569 -5.07898003 0 0 Z " fill="#F9F4F4" transform="translate(651.375,216.5)"/>
<path d="M0 0 C4.95 0 9.9 0 15 0 C16.3406751 3.91429249 17.67279005 7.8311436 19 11.75 C19.3815625 12.86117187 19.763125 13.97234375 20.15625 15.1171875 C20.5171875 16.18710938 20.878125 17.25703125 21.25 18.359375 C21.75273438 19.83615723 21.75273438 19.83615723 22.265625 21.34277344 C23 24 23 24 23 28 C23.66 28 24.32 28 25 28 C25.13664063 27.27312988 25.27328125 26.54625977 25.4140625 25.79736328 C25.95306242 23.22408782 26.61415896 20.75736027 27.375 18.2421875 C27.63796875 17.36949219 27.9009375 16.49679688 28.171875 15.59765625 C28.44515625 14.69917969 28.7184375 13.80070313 29 12.875 C29.27328125 11.96878906 29.5465625 11.06257812 29.828125 10.12890625 C30.85239515 6.73977709 31.88032858 3.35901425 33 0 C37.29 0 41.58 0 46 0 C44.56559772 8.60641369 41.79695903 16.48363781 38.13671875 24.3828125 C36.31657488 28.57352175 34.76625504 32.86456109 33.19384766 37.15332031 C29.85295596 46.22497132 26.33807438 54.55347376 19.5 61.5625 C13.83432968 63.88947174 8.04263734 63.29799307 2 63 C2 59.37 2 55.74 2 52 C4.24609375 52.09765625 6.4921875 52.1953125 8.73828125 52.29296875 C11.51452723 51.9333514 12.27260933 51.14217445 14 49 C16.01247584 46.28315762 15.9970124 44.82671917 15.9375 41.375 C15.26393801 37.09866458 13.48637977 33.76011622 11.4609375 29.97265625 C9.36805212 25.71413813 7.79854316 21.29882477 6.17456055 16.84521484 C4.7806954 13.03946763 3.31157654 9.3140137 1.625 5.625 C0 2 0 2 0 0 Z " fill="#FAF5F6" transform="translate(704,215)"/>
<path d="M0 0 C5.30988288 2.42737503 8.98292472 6.05178693 11.61328125 11.3125 C11.61328125 15.9325 11.61328125 20.5525 11.61328125 25.3125 C2.37328125 25.3125 -6.86671875 25.3125 -16.38671875 25.3125 C-13.63131027 31.5423478 -13.63131027 31.5423478 -8.38671875 34.3125 C-3.09816222 34.8533751 0.87884785 34.78306712 5.61328125 32.3125 C6.60328125 32.3125 7.59328125 32.3125 8.61328125 32.3125 C8.61328125 35.6125 8.61328125 38.9125 8.61328125 42.3125 C3.54408119 43.96923075 -1.03574918 44.65062725 -6.38671875 44.625 C-7.39605469 44.64916992 -7.39605469 44.64916992 -8.42578125 44.67382812 C-14.25702815 44.67945674 -19.0666025 43.60437954 -23.3125 39.41015625 C-23.99892578 38.40275391 -23.99892578 38.40275391 -24.69921875 37.375 C-25.40498047 36.37146484 -25.40498047 36.37146484 -26.125 35.34765625 C-26.54136719 34.67605469 -26.95773437 34.00445312 -27.38671875 33.3125 C-27.95326172 32.40564453 -27.95326172 32.40564453 -28.53125 31.48046875 C-30.72417987 25.92304373 -30.23205714 18.53187256 -28.734375 12.828125 C-23.5358141 1.3154322 -11.98672617 -3.45280492 0 0 Z " fill="#F9F4F5" transform="translate(1293.38671875,214.6875)"/>
<path d="M0 0 C3.76273019 2.21060399 6.09611791 4.78753515 8.5625 8.375 C9.5625 12.375 9.5625 12.375 9.5625 24.375 C0.3225 24.375 -8.9175 24.375 -18.4375 24.375 C-17.4475 26.355 -16.4575 28.335 -15.4375 30.375 C-15.4375 31.035 -15.4375 31.695 -15.4375 32.375 C-8.16749009 34.79833664 -0.6742906 33.24255887 6.5625 31.375 C6.5625 34.675 6.5625 37.975 6.5625 41.375 C-1.63288125 44.05104286 -12.26760238 45.35552499 -20.5 42.25 C-25.20567041 39.24638059 -28.49914435 36.46497396 -30.8125 31.3125 C-32.04891571 23.52308105 -33.01966492 15.20322465 -28.84765625 8.16015625 C-21.61882413 -0.99102458 -11.23034178 -5.16509994 0 0 Z " fill="#F9F3F4" transform="translate(853.4375,215.625)"/>
<path d="M0 0 C3.40525699 1.9788249 6.10601055 4.25917945 8.625 7.3125 C9.625 11.3125 9.625 11.3125 9.625 24.3125 C0.715 24.3125 -8.195 24.3125 -17.375 24.3125 C-15.19440167 31.16075895 -15.19440167 31.16075895 -11.375 33.3125 C-5.11468763 34.06863009 0.63558619 33.08714113 6.625 31.3125 C6.625 34.6125 6.625 37.9125 6.625 41.3125 C-1.00065035 45.12532518 -11.51034924 44.53864292 -19.70703125 42.47265625 C-24.85562091 40.18010583 -27.59758514 37.48759332 -29.75390625 32.27734375 C-32.09883953 24.8590957 -32.50217452 17.37767853 -29.34375 10.125 C-26.55201929 4.90176191 -23.0353459 1.41280627 -17.6796875 -0.9921875 C-11.72655889 -2.78821613 -5.66064625 -2.61671383 0 0 Z " fill="#FAF5F5" transform="translate(549.375,215.6875)"/>
<path d="M0 0 C3.75657945 1.79355485 7.11816202 3.83608492 9.578125 7.2421875 C11.79672417 13.67612509 11.578125 18.08702204 11.578125 25.2421875 C2.338125 25.2421875 -6.901875 25.2421875 -16.421875 25.2421875 C-13.65544888 31.4500813 -13.65544888 31.4500813 -8.421875 34.2421875 C-3.27712088 34.8314957 0.85608202 34.46432537 5.578125 32.2421875 C6.568125 32.2421875 7.558125 32.2421875 8.578125 32.2421875 C8.578125 35.5421875 8.578125 38.8421875 8.578125 42.2421875 C3.35523176 43.96949729 -1.12691915 44.52749657 -6.609375 44.4296875 C-7.30740234 44.42904297 -8.00542969 44.42839844 -8.72460938 44.42773438 C-12.09064823 44.39891007 -15.20411841 44.28151456 -18.421875 43.2421875 C-18.421875 42.5821875 -18.421875 41.9221875 -18.421875 41.2421875 C-19.01613281 41.16871094 -19.61039063 41.09523437 -20.22265625 41.01953125 C-23.20709506 39.9646408 -23.95501582 38.4627196 -25.609375 35.8046875 C-26.37314453 34.60005859 -26.37314453 34.60005859 -27.15234375 33.37109375 C-30.53375705 27.70072375 -29.91940016 21.71001463 -29.421875 15.2421875 C-27.59869984 8.23504442 -22.57148586 3.7877471 -16.5625 0.1015625 C-11.51434701 -1.92506826 -5.13595607 -1.60705722 0 0 Z " fill="#FAF4F5" transform="translate(1095.421875,214.7578125)"/>
<path d="M0 0 C4.62 0 9.24 0 14 0 C14 16.5 14 33 14 50 C21.26 50 28.52 50 36 50 C36 53.63 36 57.26 36 61 C24.12 61 12.24 61 0 61 C0 40.87 0 20.74 0 0 Z " fill="#FAF5F6" transform="translate(478,197)"/>
<path d="M0 0 C4.95 0 9.9 0 15 0 C17.64 9.57 20.28 19.14 23 29 C24.69549771 25.60900458 25.72946183 22.75973112 26.7265625 19.140625 C27.0359375 18.02558594 27.3453125 16.91054687 27.6640625 15.76171875 C27.98117187 14.60285156 28.29828125 13.44398438 28.625 12.25 C28.94984375 11.07566406 29.2746875 9.90132812 29.609375 8.69140625 C30.40992878 5.79528522 31.20544915 2.89777369 32 0 C36.62 0 41.24 0 46 0 C45.05802436 4.7098782 43.77246057 9.02599501 42.25 13.5625 C41.98340576 14.36026855 41.71681152 15.15803711 41.44213867 15.97998047 C39.54928741 21.56453895 37.4395696 27.01456138 35.1015625 32.4296875 C33.60960711 35.91091673 32.29962568 39.44312972 31 43 C25.72 43 20.44 43 15 43 C14.62488281 41.92363281 14.24976563 40.84726563 13.86328125 39.73828125 C11.0801206 31.78404106 8.22125338 23.87506937 5.16796875 16.01953125 C3.98407634 12.95883281 2.82532525 9.89061672 1.6875 6.8125 C1.36136719 5.93207031 1.03523438 5.05164063 0.69921875 4.14453125 C0 2 0 2 0 0 Z " fill="#FAF5F5" transform="translate(1148,215)"/>
<path d="M0 0 C4.29 0 8.58 0 13 0 C13 16.17 13 32.34 13 49 C20.59 49 28.18 49 36 49 C36 52.63 36 56.26 36 60 C24.12 60 12.24 60 0 60 C0 40.2 0 20.4 0 0 Z " fill="#FCFAFA" transform="translate(782,198)"/>
<path d="M0 0 C1.11246094 -0.00257813 2.22492188 -0.00515625 3.37109375 -0.0078125 C6.22627492 0.11100777 8.78757946 0.47146731 11.5625 1.125 C11.5625 4.095 11.5625 7.065 11.5625 10.125 C6.6125 10.125 1.6625 10.125 -3.4375 10.125 C-3.7675 11.775 -4.0975 13.425 -4.4375 15.125 C-3.47328125 15.51171875 -2.5090625 15.8984375 -1.515625 16.296875 C-0.2393675 16.8223928 1.03666231 17.34846381 2.3125 17.875 C2.94671875 18.12765625 3.5809375 18.3803125 4.234375 18.640625 C8.10761262 20.25447401 10.90811987 21.85212352 13.5625 25.125 C14.76893566 28.74430698 14.88518559 31.31731005 14.5625 35.125 C12.00478033 40.05097862 9.18531903 42.88606425 3.90625 44.69140625 C0.46725439 45.32762044 -2.95367533 45.26893383 -6.4375 45.25 C-7.50484375 45.25580078 -7.50484375 45.25580078 -8.59375 45.26171875 C-12.11677559 45.25514594 -14.99323402 44.98606649 -18.4375 44.125 C-18.4375 40.495 -18.4375 36.865 -18.4375 33.125 C-17.695 33.455 -16.9525 33.785 -16.1875 34.125 C-10.9253448 35.52824139 -5.8517163 35.28269562 -0.4375 35.125 C0.2439823 33.23320797 0.2439823 33.23320797 0.5625 31.125 C-1.36179335 28.86309208 -1.36179335 28.86309208 -4.5625 28.3125 C-10.21073966 26.82051217 -15.18589164 24.00241254 -18.4375 19.125 C-19.17311813 15.33837551 -19.22716378 11.90485731 -18.4375 8.125 C-13.43658827 1.32281201 -8.07168146 -0.01866285 0 0 Z " fill="#FAF5F6" transform="translate(1329.4375,213.875)"/>
<path d="M0 0 C1.30066406 0.00644531 2.60132813 0.01289063 3.94140625 0.01953125 C7.4375 0.1875 7.4375 0.1875 11.4375 1.1875 C11.4375 5.1475 11.4375 9.1075 11.4375 13.1875 C9.7875 12.5275 8.1375 11.8675 6.4375 11.1875 C0.87121822 10.74573161 -2.81548483 10.90979905 -7.5625 14.1875 C-10.22089017 18.29592117 -10.28498731 23.43972623 -9.5625 28.1875 C-7.76856332 31.05779869 -6.57986724 32.67881638 -3.5625 34.1875 C-1.52194995 34.25815617 0.52084257 34.27171976 2.5625 34.25 C3.65820312 34.24097656 4.75390625 34.23195312 5.8828125 34.22265625 C6.72585938 34.21105469 7.56890625 34.19945312 8.4375 34.1875 C8.9325 33.1975 8.9325 33.1975 9.4375 32.1875 C10.0975 32.1875 10.7575 32.1875 11.4375 32.1875 C11.4375 35.8175 11.4375 39.4475 11.4375 43.1875 C4.31447294 46.03671082 -3.59508519 46.39126003 -11.109375 44.5703125 C-17.00781989 41.98688509 -20.73665212 36.83919575 -23.5625 31.1875 C-24.56802486 15.19578729 -24.56802486 15.19578729 -20.5625 9.1875 C-14.22311808 2.53252114 -9.32301317 -0.10184026 0 0 Z " fill="#F9F4F5" transform="translate(1246.5625,213.8125)"/>
<path d="M0 0 C1.30066406 0.00644531 2.60132813 0.01289063 3.94140625 0.01953125 C7.4375 0.1875 7.4375 0.1875 11.4375 1.1875 C11.4375 5.1475 11.4375 9.1075 11.4375 13.1875 C9.7875 12.5275 8.1375 11.8675 6.4375 11.1875 C0.87121822 10.74573161 -2.81548483 10.90979905 -7.5625 14.1875 C-10.22089017 18.29592117 -10.28498731 23.43972623 -9.5625 28.1875 C-7.76856332 31.05779869 -6.57986724 32.67881638 -3.5625 34.1875 C-1.52194995 34.25815617 0.52084257 34.27171976 2.5625 34.25 C3.65820312 34.24097656 4.75390625 34.23195312 5.8828125 34.22265625 C6.72585938 34.21105469 7.56890625 34.19945312 8.4375 34.1875 C8.9325 33.1975 8.9325 33.1975 9.4375 32.1875 C10.0975 32.1875 10.7575 32.1875 11.4375 32.1875 C11.4375 35.8175 11.4375 39.4475 11.4375 43.1875 C4.31447294 46.03671082 -3.59508519 46.39126003 -11.109375 44.5703125 C-16.40333454 42.2516403 -19.65857417 38.08096671 -22.5625 33.1875 C-24.61773228 27.02180316 -24.77166663 18.43849882 -22.5625 12.25 C-16.91576504 3.60343709 -10.26534503 -0.11213386 0 0 Z " fill="#FAF4F5" transform="translate(689.5625,213.8125)"/>
<path d="M0 0 C4.29 0 8.58 0 13 0 C13 21.12 13 42.24 13 64 C8.71 64 4.42 64 0 64 C0 42.88 0 21.76 0 0 Z " fill="#FCF9FA" transform="translate(972,194)"/>
<path d="M0 0 C2.05078125 0.03255208 4.1015625 0.06510417 6.15234375 0.09765625 C6.15234375 4.38765625 6.15234375 8.67765625 6.15234375 13.09765625 C3.67838542 12.93489583 1.20442708 12.77213542 -1.26953125 12.609375 C-4.03156051 12.88114278 -4.03156051 12.88114278 -5.97070312 15.22851562 C-8.17633571 18.60008094 -8.38127044 20.49580468 -8.45703125 24.4921875 C-8.48925781 25.69423828 -8.52148438 26.89628906 -8.5546875 28.13476562 C-8.57595703 30.00358398 -8.57595703 30.00358398 -8.59765625 31.91015625 C-8.62730469 33.17537109 -8.65695312 34.44058594 -8.6875 35.74414062 C-8.75808483 38.86163721 -8.80514765 41.97965045 -8.84765625 45.09765625 C-13.46765625 45.09765625 -18.08765625 45.09765625 -22.84765625 45.09765625 C-22.84765625 30.57765625 -22.84765625 16.05765625 -22.84765625 1.09765625 C-18.22765625 1.09765625 -13.60765625 1.09765625 -8.84765625 1.09765625 C-8.51765625 2.74765625 -8.18765625 4.39765625 -7.84765625 6.09765625 C-7.04328125 5.29328125 -6.23890625 4.48890625 -5.41015625 3.66015625 C-1.84765625 0.09765625 -1.84765625 0.09765625 0 0 Z " fill="#FDFBFB" transform="translate(1137.84765625,213.90234375)"/>
<path d="M0 0 C4.62 0 9.24 0 14 0 C14 14.19 14 28.38 14 43 C9.38 43 4.76 43 0 43 C0 28.81 0 14.62 0 0 Z " fill="#F8F0F1" transform="translate(1200,215)"/>
<path d="M0 0 C3.33692671 2.91981087 3.82969952 4.72031351 4.41015625 9.08203125 C4.84221224 18.77559516 4.84221224 18.77559516 2 22.8125 C-0.85964456 24.89765749 -1.72683319 25.42563457 -5.0625 25.6875 C-9 25 -9 25 -11.4375 22.625 C-14.41305073 17.62607477 -14.35428664 13.759429 -14 8 C-13.2206014 4.9473555 -12.45507803 3.50758703 -10.375 1.1875 C-6.87803126 -0.56098437 -3.81850954 -0.9076785 0 0 Z " fill="#8E0D21" transform="translate(593,224)"/>
<path d="M0 0 C3.5625 0.5625 3.5625 0.5625 6.5 2.25 C9.6821665 7.36075226 9.43430074 12.69237503 8.5625 18.5625 C6.87208553 22.06126484 5.83476941 23.38098706 2.5625 25.5625 C-0.55681927 25.5625 -2.56644852 25.53299628 -5.4375 24.5625 C-8.74243714 21.25756286 -9.67566127 18.55368884 -9.8125 14 C-9.57376112 9.25705435 -8.56493575 6.10750455 -5.75 2.25 C-3.4375 0.5625 -3.4375 0.5625 0 0 Z " fill="#8D0B1F" transform="translate(891.4375,223.4375)"/>
<path d="M0 0 C2.5 1.125 2.5 1.125 4 3 C4.608676 6.57597151 4.44405832 8.29690766 2.5 11.375 C-0.53521802 13.34789171 -2.52197594 13.63971021 -6.09375 13.453125 C-8 13 -8 13 -10.5 10.8125 C-12.11261637 7.7888443 -12.70535543 6.3504383 -12 3 C-8.83568337 -0.82354926 -4.59384038 -0.67777973 0 0 Z " fill="#F6EBED" transform="translate(1211,195)"/>
<path d="M0 0 C0.35671933 3.83473284 0.29771416 5.55342875 -1.875 8.8125 C-4.47360124 11.48753069 -5.28268297 11.94022358 -9 12.25 C-9.99 12.1675 -10.98 12.085 -12 12 C-14.31567384 8.52648925 -14.59587577 7.08600528 -14 3 C-9.98493129 -0.88555036 -5.22857545 -0.30756326 0 0 Z " fill="#92172A" transform="translate(645,238)"/>
<path d="M0 0 C1.8871875 0.0309375 1.8871875 0.0309375 3.8125 0.0625 C4.2372346 4.3947929 4.28298413 6.41212488 1.6875 10 C-1.1875 12.0625 -1.1875 12.0625 -4.3125 12.5625 C-7.1875 12.0625 -7.1875 12.0625 -9.0625 10.875 C-10.59409584 8.40742892 -10.61572025 6.91730169 -10.1875 4.0625 C-7.46842469 0.43706625 -4.34198452 -0.07118007 0 0 Z " fill="#921629" transform="translate(944.1875,237.9375)"/>
<path d="M0 0 C2.375 1.125 2.375 1.125 4 3 C4 4.98 4 6.96 4 9 C-0.95 9 -5.9 9 -11 9 C-10 3 -10 3 -8.3125 1.125 C-5.29246779 -0.34420486 -3.32368343 -0.41546043 0 0 Z " fill="#8D0A1F" transform="translate(543,223)"/>
<path d="M0 0 C2.05078125 0.03255208 4.1015625 0.06510417 6.15234375 0.09765625 C6.15234375 4.38765625 6.15234375 8.67765625 6.15234375 13.09765625 C5.49234375 12.76765625 4.83234375 12.43765625 4.15234375 12.09765625 C4.48234375 8.46765625 4.81234375 4.83765625 5.15234375 1.09765625 C-1.08410021 2.34494504 -3.53011606 4.47889233 -7.84765625 9.09765625 C-8.50765625 9.09765625 -9.16765625 9.09765625 -9.84765625 9.09765625 C-9.84765625 6.78765625 -9.84765625 4.47765625 -9.84765625 2.09765625 C-13.80765625 2.09765625 -17.76765625 2.09765625 -21.84765625 2.09765625 C-21.84765625 15.95765625 -21.84765625 29.81765625 -21.84765625 44.09765625 C-17.55765625 44.09765625 -13.26765625 44.09765625 -8.84765625 44.09765625 C-8.84765625 44.42765625 -8.84765625 44.75765625 -8.84765625 45.09765625 C-13.46765625 45.09765625 -18.08765625 45.09765625 -22.84765625 45.09765625 C-22.84765625 30.57765625 -22.84765625 16.05765625 -22.84765625 1.09765625 C-18.22765625 1.09765625 -13.60765625 1.09765625 -8.84765625 1.09765625 C-8.51765625 2.74765625 -8.18765625 4.39765625 -7.84765625 6.09765625 C-7.04328125 5.29328125 -6.23890625 4.48890625 -5.41015625 3.66015625 C-1.84765625 0.09765625 -1.84765625 0.09765625 0 0 Z " fill="#D2A0A8" transform="translate(1137.84765625,213.90234375)"/>
<path d="M0 0 C2.4375 1.6875 2.4375 1.6875 4 4 C4 5.65 4 7.3 4 9 C-0.95 9 -5.9 9 -11 9 C-10 3 -10 3 -8.875 1.125 C-5.83167192 -0.70099685 -3.45750445 -0.42460581 0 0 Z " fill="#880116" transform="translate(1289,223)"/>
<path d="M0 0 C2.4375 1.6875 2.4375 1.6875 4 4 C4 5.65 4 7.3 4 9 C-0.95 9 -5.9 9 -11 9 C-10 3 -10 3 -8.875 1.125 C-5.83167192 -0.70099685 -3.45750445 -0.42460581 0 0 Z " fill="#880116" transform="translate(1091,223)"/>
<path d="M0 0 C2.375 1.125 2.375 1.125 4 3 C4 4.98 4 6.96 4 9 C-0.62 9 -5.24 9 -10 9 C-10 4 -10 4 -8.375 1.6875 C-5.3090441 -0.49094235 -3.69181797 -0.53839012 0 0 Z " fill="#8D0C20" transform="translate(846,223)"/>
<path d="M0 0 C0 0.33 0 0.66 0 1 C-0.9075 1.226875 -1.815 1.45375 -2.75 1.6875 C-6.62461281 2.94346227 -6.62461281 2.94346227 -10 8 C-5.71 8 -1.42 8 3 8 C3.33 6.68 3.66 5.36 4 4 C4 5.65 4 7.3 4 9 C-0.95 9 -5.9 9 -11 9 C-10 3 -10 3 -8.875 1.125 C-5.98014 -0.611916 -3.29140103 -0.18630572 0 0 Z " fill="#9A2839" transform="translate(1091,223)"/>
<path d="M0 0 C0 0.33 0 0.66 0 1 C-0.9075 1.226875 -1.815 1.45375 -2.75 1.6875 C-6.62461281 2.94346227 -6.62461281 2.94346227 -10 8 C-5.71 8 -1.42 8 3 8 C3.33 6.68 3.66 5.36 4 4 C4 5.65 4 7.3 4 9 C-0.95 9 -5.9 9 -11 9 C-10 3 -10 3 -8.875 1.125 C-5.98014 -0.611916 -3.29140103 -0.18630572 0 0 Z " fill="#9A2739" transform="translate(1289,223)"/>
<path d="M0 0 C-1.01134308 2.17827741 -1.97492101 3.97031466 -3.53125 5.8125 C-5.27860819 8.41494837 -5.48326483 10.14562542 -5.6875 13.25 C-5.75324219 14.14203125 -5.81898438 15.0340625 -5.88671875 15.953125 C-5.92410156 16.62859375 -5.96148438 17.3040625 -6 18 C-6.33 18 -6.66 18 -7 18 C-7.86078921 6.17849482 -7.86078921 6.17849482 -4.625 2.25 C-2 0 -2 0 0 0 Z " fill="#E3C3C8" transform="translate(929,234)"/>
<path d="M0 0 C0 0.33 0 0.66 0 1 C-0.65226562 1.08636719 -1.30453125 1.17273438 -1.9765625 1.26171875 C-8.14617438 2.25358851 -11.57066275 3.57066275 -16 8 C-15.07349738 4.57194031 -14.33885367 3.23397039 -11.375 1.1875 C-7.26791982 -0.25758377 -4.32694386 -0.22380744 0 0 Z " fill="#A53F4F" transform="translate(1253,224)"/>
<path d="M0 0 C0 0.33 0 0.66 0 1 C-0.68707031 1.10957031 -1.37414062 1.21914062 -2.08203125 1.33203125 C-2.98308594 1.49058594 -3.88414062 1.64914063 -4.8125 1.8125 C-5.70582031 1.96332031 -6.59914063 2.11414063 -7.51953125 2.26953125 C-10.21678629 3.063841 -11.14560189 3.96740147 -13 6 C-13.66 6 -14.32 6 -15 6 C-14.02703346 3.34645489 -13.34207577 2.20122104 -10.875 0.75 C-7.12311455 -0.22875273 -3.8735649 -0.13130728 0 0 Z " fill="#A64150" transform="translate(696,224)"/>
<path d="M0 0 C0.66 0.33 1.32 0.66 2 1 C-0.97 3.97 -3.94 6.94 -7 10 C-7 6.04435836 -5.59478606 4.89133304 -3 2 C-2.01 1.34 -1.02 0.68 0 0 Z " fill="#E6CBCF" transform="translate(529,216)"/>
<path d="M0 0 C4.95 0 9.9 0 15 0 C14.67 0.66 14.34 1.32 14 2 C12.84371094 1.94779297 12.84371094 1.94779297 11.6640625 1.89453125 C10.15972656 1.85392578 10.15972656 1.85392578 8.625 1.8125 C7.62726562 1.77769531 6.62953125 1.74289063 5.6015625 1.70703125 C4.31378906 1.85205078 4.31378906 1.85205078 3 2 C2.01 3.485 2.01 3.485 1 5 C0.67 3.35 0.34 1.7 0 0 Z " fill="#E8CED2" transform="translate(704,215)"/>
<path d="M0 0 C0.66 0.33 1.32 0.66 2 1 C1.51789063 1.47050781 1.03578125 1.94101563 0.5390625 2.42578125 C-0.40839844 3.35970703 -0.40839844 3.35970703 -1.375 4.3125 C-2.00148438 4.92738281 -2.62796875 5.54226562 -3.2734375 6.17578125 C-5.18086607 8.08812528 -5.18086607 8.08812528 -7 11 C-6.58485103 6.1565954 -4.53791301 4.18412171 -1 1 C-0.67 0.67 -0.34 0.34 0 0 Z " fill="#E6CACE" transform="translate(1026,200)"/>
<path d="M0 0 C0 0.33 0 0.66 0 1 C-1.36125 1.433125 -1.36125 1.433125 -2.75 1.875 C-5.32202908 2.76531776 -7.61346766 3.71494413 -10 5 C-7.62417533 -0.26075462 -5.61350876 -0.1220328 0 0 Z " fill="#A23849" transform="translate(543,223)"/>
</svg>
